<?xml version="1.0" encoding="UTF-8" standalone="no"?>
<!-- Created with Inkscape (http://www.inkscape.org/) -->

<svg
   width="16"
   height="16"
   viewBox="0 0 4.2333332 4.2333335"
   version="1.1"
   id="svg5"
   inkscape:version="1.1.2 (0a00cf5339, 2022-02-04)"
   sodipodi:docname="logo_as_path.svg"
   xmlns:inkscape="http://www.inkscape.org/namespaces/inkscape"
   xmlns:sodipodi="http://sodipodi.sourceforge.net/DTD/sodipodi-0.dtd"
   xmlns="http://www.w3.org/2000/svg"
   xmlns:svg="http://www.w3.org/2000/svg">
  <sodipodi:namedview
     id="namedview7"
     pagecolor="#ffffff"
     bordercolor="#666666"
     borderopacity="1.0"
     inkscape:pageshadow="2"
     inkscape:pageopacity="0.0"
     inkscape:pagecheckerboard="true"
     inkscape:document-units="px"
     showgrid="false"
     units="px"
     width="16px"
     inkscape:zoom="20.724804"
     inkscape:cx="9.8674033"
     inkscape:cy="-3.8842346"
     inkscape:window-width="1269"
     inkscape:window-height="1401"
     inkscape:window-x="1282"
     inkscape:window-y="5"
     inkscape:window-maximized="1"
     inkscape:current-layer="layer1" />
  <defs
     id="defs2" />
  <g
     inkscape:label="Layer 1"
     inkscape:groupmode="layer"
     id="layer1">
    <circle
       style="fill:#ffffff;fill-rule:evenodd;stroke-width:0.132291"
       id="path1985"
       cx="2.1166668"
       cy="2.1166668"
       r="2.1166668" />
    <g
       aria-label="C"
       id="text297"
       style="font-size:3.97526px;line-height:1.25;word-spacing:0px;stroke-width:0.0993815">
      <path
         d="m 2.2417214,3.4503667 q -0.3339218,0 -0.61219,-0.1590104 Q 1.3512632,3.1323459 1.180327,2.8381767 1.0133661,2.5440074 1.0133661,2.1345557 q 0,-0.4054766 0.1590104,-0.7075963 0.1590104,-0.306095 0.4492044,-0.47305596 0.2941692,-0.17093618 0.6916952,-0.17093618 0.1431094,0 0.2941693,0.0278268 0.1550351,0.0278268 0.2862187,0.0954062 0.1311836,0.0636042 0.2106888,0.17093618 0.08348,0.107332 0.08348,0.2663424 0.00398,0.1709362 -0.1033567,0.3021198 -0.107332,0.1272083 -0.3021198,0.1272083 -0.1192578,0 -0.1709362,-0.055654 -0.047703,-0.059629 -0.043728,-0.087456 0,-0.011926 0.047703,-0.039753 0.051678,-0.031802 0.099381,-0.091431 0.051678,-0.063604 0.051678,-0.166961 0,-0.1788867 -0.1192578,-0.2822434 -0.1192578,-0.10733204 -0.3378971,-0.10733204 -0.2385156,0 -0.4293281,0.13515884 -0.1868372,0.1351588 -0.2941693,0.397526 -0.107332,0.2583919 -0.107332,0.6360416 0,0.3180208 0.1113073,0.580388 0.1152825,0.2583919 0.3180208,0.413427 0.2067135,0.1510599 0.4770312,0.1510599 0.2146641,0 0.3657239,-0.087456 0.1550352,-0.091431 0.2782682,-0.290194 0.035777,-0.067579 0.1272084,-0.011926 0.035777,0.023852 0.055654,0.059629 0.019876,0.031802 -0.00795,0.067579 -0.1510599,0.1908125 -0.2862187,0.290194 -0.1351589,0.095406 -0.2941693,0.1311836 -0.1590104,0.035777 -0.381625,0.035777 z"
         style="font-family:Alice;-inkscape-font-specification:Alice"
         id="path9" />
    </g>
  </g>
</svg>
