<svg xmlns="http://www.w3.org/2000/svg" width="16" height="16" viewBox="0 0 4.233 4.233"><circle cx="2.117" cy="2.117" r="2.117" style="fill:#fff;fill-rule:evenodd;stroke-width:.132291"/><g style="font-size:3.97526px;line-height:1.25;word-spacing:0;stroke-width:.0993815"><path d="M2.242 3.45q-.334 0-.612-.159-.279-.159-.45-.453-.167-.294-.167-.703 0-.406.16-.708.158-.306.449-.473.294-.171.691-.171.143 0 .294.028.155.028.287.095.13.064.21.171.084.107.084.266.004.171-.104.303-.107.127-.302.127-.119 0-.17-.056-.048-.06-.044-.087 0-.012.047-.04.052-.032.1-.091.051-.064.051-.167 0-.18-.119-.283-.12-.107-.338-.107-.238 0-.429.135-.187.135-.294.398-.108.258-.108.636 0 .318.112.58.115.258.318.414.207.15.477.15.214 0 .366-.087.155-.091.278-.29.036-.068.127-.012.036.024.056.06.02.031-.008.067-.151.191-.286.29-.136.096-.295.132-.159.035-.381.035z" aria-label="C" style="font-family:Alice;-inkscape-font-specification:Alice"/></g></svg>